# xmcd
#
# Track frame offsets:
#	150
#	17192
#	31672
#	50295
#	65882
#	83140
#	97335
#	117805
#	144347
#	163955
#	183167
#	200945
#	216510
#	231312
#	247060
#
# Disc length: 3538
#
# Revision: 2
# Processed by: cddbd v1.5.1PL0 Copyright (c) Steve Scherf et al.
# Submitted via: audiograbber 1.82.02
# Normalized: r1:DSETVAR1
#
DISCID=e30dd00f
DTITLE=Various Artist - Rounder's Best from Texas and Beyond
DYEAR=2000
DGENRE=Country
TTITLE0=Alison Krauss - Maybe
TTITLE1=Slaid Cleaves - Broke Down
TTITLE2=Joe Ely - Me and Billy the Kid
TTITLE3=Tish Hinojosa - Sign of Truth
TTITLE4=The Burns Sisters with Jimmy LaFave - Never Be Mine
TTITLE5=Jimmy Dale Gilmore - No Lonesome Tune
TTITLE6=Ray Wylie Hubbard - The Lovers in your Dreams
TTITLE7=Irma Thomas - Zero Will Power
TTITLE8=Natalie MacMaster - In My Hands
TTITLE9=Carrie Newcomer - When it's Gone it's Gone
TTITLE10=Robert Lee Castleman - Crazy as Me
TTITLE11=Rhonda Vincent - When I Close My Eyes
TTITLE12=Ronnie McCoury - Evangelina
TTITLE13=Tarbox Ramblers - Jack of Diamonds
TTITLE14=Chris Duart Group - Baddness
EXTD=
EXTT0=
EXTT1=
EXTT2=
EXTT3=
EXTT4=
EXTT5=
EXTT6=
EXTT7=
EXTT8=
EXTT9=
EXTT10=
EXTT11=
EXTT12=
EXTT13=
EXTT14=
PLAYORDER=
